<svg width="590" height="478" viewBox="0 0 590 478" fill="none" xmlns="http://www.w3.org/2000/svg">
<path d="M159.955 196.742C159.987 196.118 160.019 195.495 160.019 194.837C160.019 166.122 160.019 137.408 160.019 108.693C160.019 105.575 160.917 103.082 163.482 101.454C164.412 100.865 165.406 100.622 166.432 100.38C167.074 100.172 167.715 100.276 168.357 100.276C207.512 100.276 246.667 100.276 285.822 100.276C286.238 100.172 286.591 99.9295 287.04 99.9642C291.337 99.8603 295.634 99.8603 299.931 99.9642C300.316 99.9642 300.733 99.9988 301.118 99.9642C304.421 99.9295 307.724 99.9295 311.027 99.9642C315.26 99.9988 318.146 102.735 318.916 107.203C319.236 109.039 319.204 110.875 319.204 112.711C319.204 117.041 319.236 121.336 319.172 125.665C319.14 125.977 319.108 126.289 319.076 126.601C319.044 126.808 319.012 127.016 318.948 127.189C318.755 130.757 318.82 134.359 318.948 137.927C318.82 138.897 318.852 139.867 318.852 140.871C318.852 159.021 318.852 177.172 318.852 195.287C318.852 196.222 319.204 197.469 318.338 198.023C317.441 198.578 316.671 197.573 315.933 197.088C314.073 195.945 312.342 194.594 310.321 193.798C309.873 193.624 309.456 193.313 309.231 192.862C308.814 191.823 308.943 190.715 308.943 189.606C308.943 164.737 308.943 139.867 308.943 114.997C308.943 111.776 308.943 111.776 305.96 111.776C261.61 111.776 217.26 111.776 172.91 111.776C169.896 111.776 169.896 111.776 169.896 114.997C169.896 190.195 169.896 265.394 169.896 340.592C169.896 343.71 169.896 343.71 172.814 343.71C217.228 343.71 261.61 343.71 306.024 343.71C308.975 343.71 308.975 343.71 308.975 340.419C308.975 299.096 308.975 257.773 308.975 216.451C308.975 215.308 308.75 214.13 309.392 213.091C310.097 212.675 310.642 213.195 311.187 213.506C313.336 214.788 315.452 216.174 317.569 217.49C318.306 217.94 318.691 218.529 318.691 219.568C318.627 261.688 318.659 303.772 318.659 345.892C318.659 346.584 318.723 347.277 318.595 347.97C317.89 352.508 314.394 355.071 310.578 354.967C305.191 354.828 299.803 354.932 294.416 354.932C293.903 354.932 293.358 355.001 292.844 355.071C292.716 355.175 292.556 355.279 292.396 355.382C292.139 355.486 291.882 355.521 291.626 355.521C290.407 355.556 289.189 355.556 287.97 355.521C287.714 355.521 287.457 355.486 287.201 355.382C287.04 355.313 286.912 355.175 286.752 355.071C282.871 355.036 278.959 354.967 275.079 354.967C270.653 354.932 266.196 355.001 261.771 354.932C260.488 354.898 260.36 355.244 260.648 356.595C262.797 366.778 264.817 376.962 266.901 387.18C268.537 395.32 270.204 403.46 271.84 411.599C272.834 416.587 273.86 421.54 274.854 426.563C274.951 427.048 275.335 427.879 274.469 428.122C273.443 428.433 273.764 427.394 273.668 426.944C272.994 423.965 272.417 420.952 271.776 417.973C270.493 411.703 269.242 405.399 267.928 399.13C266.709 393.241 265.587 387.318 264.368 381.43C262.989 374.71 261.835 367.991 260.231 361.34C259.846 359.712 259.365 358.05 259.301 356.352C259.237 355.14 258.628 355.001 257.73 355.001C252.054 355.036 246.41 355.001 240.734 355.001C234.096 355.001 227.49 355.001 220.852 355.001C219.986 355.001 219.537 355.071 219.281 356.283C217.677 364.423 215.945 372.528 214.278 380.668C211.712 393.241 209.179 405.78 206.614 418.354C206.036 421.229 205.491 424.138 204.978 427.048C204.882 427.637 204.85 428.225 204.08 428.225C203.663 428.225 203.343 428.329 203.503 427.498C204.625 421.679 205.812 415.86 206.966 410.041C207.928 405.157 208.955 400.273 209.917 395.354C211.264 388.565 212.771 381.811 213.989 374.987C214.951 369.653 216.202 364.388 217.453 359.123C218.415 355.071 218.479 355.071 214.534 355.071C198.468 355.071 182.37 355.105 166.304 355.036C163.418 355.036 160.34 352.023 160.211 348.732C159.987 342.22 160.083 335.708 160.051 329.196C160.051 326.425 160.019 323.654 160.019 320.883C159.73 320.502 159.634 320.087 159.602 319.602C159.442 317.662 159.538 315.688 159.538 313.748C159.57 300.066 159.474 286.35 159.57 272.668C159.57 272.217 159.538 271.802 159.57 271.351C159.538 269.412 159.538 267.472 159.57 265.567C159.57 265.221 159.57 264.909 159.57 264.562C159.474 254.552 159.474 244.507 159.57 234.497C159.57 234.151 159.57 233.839 159.57 233.492C159.506 225.63 159.474 217.802 159.57 209.939C159.57 209.627 159.57 209.281 159.57 208.969C159.506 205.436 159.538 201.903 159.57 198.37C159.602 198.058 159.634 197.746 159.698 197.435C159.762 197.088 159.859 196.915 159.955 196.742Z" fill="black"/>
<path d="M347.007 277.102C347.103 276.617 346.911 276.097 347.296 275.682C347.616 274.677 347.616 273.603 347.969 272.599C348.707 268.962 349.412 265.29 350.214 261.653C351.016 257.982 351.945 254.345 352.779 250.673C353.581 247.14 354.318 243.572 355.088 240.039C355.729 239.693 356.435 239.832 357.14 239.832C365.959 239.797 374.778 240.282 383.629 240.247C386.194 240.247 388.824 240.247 391.389 240.801C392.159 241.494 391.998 242.429 391.902 243.365C391.421 244.75 390.363 245.685 389.465 246.724C385.617 251.262 381.801 255.834 377.92 260.337C375.804 262.796 373.752 265.29 371.699 267.75C370.385 269.343 370.385 271.144 371.86 272.668C374.585 275.508 377.439 278.175 380.229 280.946C383.34 283.995 386.451 287.077 389.561 290.125C390.716 291.269 391.934 292.238 393.024 293.451C393.57 294.074 394.147 294.698 394.211 295.633C394.724 300.17 394.724 304.708 394.916 309.245C395.173 314.718 395.558 320.156 395.59 325.629C395.59 326.183 395.718 326.772 395.43 327.326C394.788 327.881 394.019 327.777 393.313 327.811C391.293 327.846 389.272 327.742 387.284 328.019C380.39 327.638 373.463 327.95 366.568 327.846C365.286 327.811 364.003 327.881 362.752 327.811C359.032 327.777 355.345 327.43 351.625 327.292C348.29 327.153 344.955 326.807 341.587 326.807C340.529 326.807 339.471 326.737 338.413 326.564C337.29 326.391 336.649 325.837 336.874 324.521C337.707 318.39 339.279 312.397 340.593 306.371C342.614 297.018 344.57 287.666 346.75 278.383C346.879 277.968 346.654 277.483 347.007 277.102Z" fill="#8F3600"/>
<path d="M391.55 243.78C391.55 242.88 391.518 241.945 391.518 241.044C391.101 240.49 391.261 239.832 391.293 239.208C391.999 229.614 392.768 220.019 393.506 210.424C394.083 202.839 394.66 195.253 395.237 187.667C395.718 181.294 396.167 174.921 396.809 168.547C396.873 167.958 396.873 167.404 397.258 166.919C398.508 166.157 399.791 166.261 401.074 166.781C401.426 167.127 401.362 167.612 401.362 168.062C401.298 174.747 401.33 181.433 401.362 188.152C401.362 189.815 400.945 190.819 399.342 191.304C397.771 191.755 396.937 193.105 396.873 194.941C396.873 195.184 396.873 194.872 396.873 195.114C396.488 201.107 399.021 201.384 403.415 200.934C403.96 200.864 404.409 200.518 404.826 200.137C407.263 197.851 406.525 192.517 403.511 191.27C402.196 190.75 401.683 189.953 401.683 188.464C401.715 181.883 401.683 175.302 401.683 168.721C401.683 168.132 401.683 167.577 401.94 167.023C402.196 166.608 402.613 166.469 403.062 166.469C407.038 166.538 411.047 165.949 414.991 167.093C419.994 168.547 423.842 171.492 425.958 176.756C426.247 177.518 426.504 178.246 426.439 179.077C426.247 182.056 426.087 185.035 425.926 188.014C425.253 199.86 424.579 211.706 423.906 223.517C423.489 231.103 423.04 238.689 422.591 246.274C422.399 249.184 422.399 249.184 419.577 248.837C416.146 248.387 412.682 248.041 409.219 247.556C408 247.383 407.455 247.66 407.327 249.08C407.199 250.673 407.006 252.301 406.044 253.652C405.403 254.241 404.954 253.721 404.537 253.306C402.196 251.124 399.919 248.872 397.642 246.586C397.097 246.032 396.52 245.512 396.007 244.923C394.724 243.642 393.153 243.642 391.55 243.78Z" fill="#6DB5DE"/>
<path d="M337.034 324.174C336.841 325.456 337.194 326.045 338.573 326.114C344.121 326.322 349.669 326.668 355.216 326.98C357.653 327.119 360.123 327.257 362.56 327.396C363.49 328.158 363.586 329.37 363.971 330.444C367.274 339.761 370.545 349.079 373.88 358.362C375.291 362.449 376.638 366.536 378.273 370.554C378.498 371.282 378.722 372.044 378.979 372.771C381.512 379.976 384.109 387.111 386.611 394.316C386.739 394.628 386.835 394.939 386.963 395.251C387.541 397.156 388.246 398.992 388.888 400.828C389.016 401.382 389.304 401.901 389.176 402.49C389.176 402.629 389.176 402.733 389.176 402.871C388.599 403.425 387.893 403.391 387.22 403.391C379.748 403.425 372.276 403.391 364.805 403.391C364.067 403.391 363.297 403.495 362.72 402.802C360.251 395.944 357.782 389.12 355.313 382.262C351.817 372.667 348.29 363.107 344.762 353.513C342.614 347.693 340.497 341.84 338.381 336.02C337.643 334.012 337.13 331.899 337.002 329.716C336.713 329.058 337.098 328.296 336.745 327.638C336.745 326.53 336.745 325.387 336.745 324.278C336.809 324.036 336.906 324.001 337.034 324.174Z" fill="#FD9993"/>
<path d="M397.29 166.953C396.841 173.292 396.392 179.596 395.911 185.9C395.205 194.975 394.5 204.05 393.794 213.125C393.057 222.443 392.287 231.726 391.55 241.043C383.821 240.905 376.061 240.905 368.332 240.628C364.452 240.489 360.54 240.489 356.659 240.385C356.114 240.385 355.601 240.385 355.12 240.039C354.96 239.693 355.056 239.45 355.345 239.242C357.108 231.899 360.027 225.041 362.785 218.113C368.3 204.293 374.425 190.75 379.524 176.721C380.518 173.985 381.384 171.179 382.378 168.443C382.635 167.75 382.763 166.988 383.468 166.607C384.591 166.261 385.713 166.434 386.868 166.399C389.754 166.33 392.672 166.365 395.558 166.365C396.071 166.365 396.616 166.365 397.097 166.676C397.162 166.815 397.226 166.884 397.29 166.953Z" fill="black"/>
<path d="M383.212 167.057C377.921 183.891 370.641 199.79 364.067 216C361.149 223.17 358.359 230.375 355.954 237.753C355.794 238.272 355.794 238.896 355.313 239.277C355.601 236.61 355.89 233.908 356.243 230.791C354.318 233.077 352.555 235.12 349.861 235.571C348.803 235.744 347.745 235.744 346.686 235.571C345.564 235.467 344.57 235.051 343.576 234.497C338.445 231.587 333.282 228.712 328.151 225.803C327.029 225.179 325.97 224.417 324.816 223.863C324.046 223.482 323.693 222.997 323.95 222.097C326.515 217.005 329.081 211.948 331.678 206.891C332.897 204.847 333.154 204.743 335.11 205.921C337.29 207.272 339.535 208.484 341.652 209.904C342.774 210.666 343.415 210.458 344.121 209.281C348.45 202.076 352.683 194.802 357.012 187.597C358.584 184.965 360.091 182.333 361.694 179.735C362.624 178.176 363.394 176.548 364.131 174.885C366.344 169.621 370.385 167.057 375.612 166.538C377.728 166.33 379.877 166.468 382.025 166.503C382.41 166.538 382.923 166.503 383.212 167.057Z" fill="#6DB5DE"/>
<path d="M387.445 327.603C390.042 327.153 392.64 327.673 395.237 327.326C396.007 327.776 395.878 328.608 395.878 329.301C396.039 337.717 396.616 346.1 396.937 354.482C397.065 357.738 397.033 361.029 397.418 364.319C397.578 365.843 398.155 366.259 399.438 366.224C402.901 366.19 406.365 366.19 409.86 366.224C410.662 366.224 411.463 366.12 412.169 366.709C412.554 367.263 412.554 367.887 412.554 368.51C412.554 377.066 412.618 385.621 412.522 394.177C412.522 394.489 412.49 394.835 412.522 395.147C412.554 397.052 412.586 398.922 412.49 400.827C412.457 401.243 412.393 401.659 412.041 401.97C412.008 402.248 412.009 402.49 411.976 402.767C411.431 403.356 410.726 403.321 410.02 403.321C404.056 403.356 398.123 403.356 392.159 403.321C391.517 403.321 390.876 403.356 390.331 402.836C390.17 402.49 389.85 402.421 389.529 402.351C389.208 401.936 389.144 401.416 389.112 400.931C389.144 398.992 388.599 397.121 388.759 395.181C388.759 394.87 388.759 394.558 388.759 394.212C388.663 388.67 388.471 383.162 388.31 377.62C388.118 371.766 388.118 365.878 387.765 359.99C387.733 359.47 387.765 358.95 387.797 358.431C387.797 353.374 387.541 348.317 387.348 343.26C387.188 338.618 387.348 333.942 386.964 329.301C386.964 328.746 386.964 328.123 387.445 327.603Z" fill="#FD9993"/>
<path d="M362.72 402.767C371.539 402.802 380.39 402.802 389.208 402.836C387.541 410.734 385.873 418.666 384.206 426.563C384.11 427.013 384.174 427.464 384.142 427.949C383.821 428.538 383.276 428.26 382.859 428.26C368.589 428.295 354.319 428.295 340.048 428.26C339.599 428.26 339.086 428.503 338.702 427.983L338.766 427.914L338.702 427.845C339.022 427.291 338.702 426.632 338.958 426.044C339.599 421.887 341.716 418.804 344.859 416.449C349.188 413.193 353.485 409.902 357.782 406.612C359.385 405.33 361.053 404.049 362.72 402.767Z" fill="black"/>
<path d="M401.074 167.023C399.823 166.988 398.572 166.988 397.29 166.954L397.322 166.988C396.873 166.469 396.809 165.845 396.873 165.222C397.418 158.779 395.59 152.96 393.121 147.245C391.71 143.954 390.395 140.594 389.24 137.2C388.599 135.329 387.509 134.498 385.777 134.567C383.051 134.671 380.358 134.082 377.632 134.152C376.638 134.186 375.547 134.117 375.195 132.732C375.387 129.372 377.119 126.947 380.454 126.289C385.873 125.18 391.293 124.696 396.776 126.22C402.132 127.709 405.21 131.069 405.756 137.061C405.788 137.477 405.691 137.858 405.435 138.17C405.595 141.391 405.435 144.612 404.825 147.799C404.729 148.284 404.377 148.873 405.371 149.011C412.362 150.05 414.542 152.683 414.767 160.268C414.767 160.372 414.799 160.476 414.831 160.58C422.655 158.848 426.728 160.061 429.005 164.945C430.865 168.928 430.544 175.855 426.503 179.111C425.734 178.107 425.702 176.791 425.125 175.682C422.142 170.279 417.589 167.542 411.945 167.057C408.738 166.78 405.467 167.023 402.228 167.057C401.747 167.3 401.394 167.335 401.074 167.023Z" fill="black"/>
<path d="M390.395 402.905C397.61 402.871 404.794 402.871 412.009 402.836C415.12 410.907 418.262 418.977 421.373 427.048C421.469 427.29 421.629 427.533 421.79 427.775C421.661 428.468 421.148 428.26 420.763 428.26C409.123 428.26 397.482 428.26 385.841 428.26C385.585 428.26 385.296 428.295 385.2 427.948C386.322 422.545 387.445 417.142 388.599 411.738C389.177 408.794 389.786 405.85 390.395 402.905Z" fill="black"/>
<path d="M331.871 207.098C329.498 211.809 327.157 216.52 324.784 221.231C324.591 221.612 324.431 222.097 323.886 222.131C322.25 221.196 320.647 220.295 318.755 219.222C318.755 220.018 318.755 220.676 318.755 221.335C318.755 262.831 318.755 304.292 318.755 345.788C318.755 346.515 318.98 347.277 318.531 347.97C318.531 305.608 318.531 263.281 318.563 220.919C318.563 219.36 318.242 218.425 316.895 217.698C314.394 216.312 311.989 214.684 309.552 213.16C307.98 213.195 306.89 212.052 305.704 211.255C299.899 207.306 294.608 202.63 289.766 197.365C287.425 194.802 287.682 189.503 290.119 187.216C290.728 187.043 291.145 187.39 291.562 187.771C293.133 189.26 294.833 190.611 296.404 192.447C295.474 190.161 296.147 188.74 298.328 187.84C298.873 187.701 299.386 187.805 299.867 188.048C302.689 189.364 305.511 190.68 308.365 191.962C308.814 192.17 309.199 192.481 309.423 192.932C311.027 193.555 312.598 194.179 314.041 195.218C315.388 196.222 316.831 197.088 318.242 198.023C318.659 197.331 318.499 196.673 318.499 196.084C318.499 177.379 318.499 158.71 318.499 140.005C318.499 139.313 318.563 138.62 318.595 137.927C318.691 137.996 318.755 138.031 318.851 138.1C319.364 139.001 319.204 140.005 319.204 140.975C319.204 158.917 319.268 176.825 319.172 194.767C319.172 197.227 319.845 198.716 321.834 199.859C324.784 201.591 327.606 203.6 330.428 205.54C331.037 205.955 331.678 206.267 331.871 207.098Z" fill="#FD9993"/>
<path d="M159.987 197.054C159.987 197.296 159.987 197.573 159.987 197.816C158.929 198.647 157.71 198.266 156.588 198.301C155.53 198.335 155.016 198.751 155.049 199.929C155.113 202.111 154.984 204.293 155.145 206.475C155.241 207.791 155.786 208.415 157.069 208.38C158.063 208.346 159.089 208.103 159.987 208.865C159.987 209.108 159.987 209.385 159.955 209.627C159.121 210.32 158.095 210.112 157.165 210.077C155.882 210.043 155.305 210.597 155.209 211.948C155.145 212.675 155.049 213.437 155.049 214.165C155.049 219.672 155.049 225.214 155.049 230.722C155.049 232.765 155.177 232.834 157.037 232.904C158.031 232.938 159.089 232.661 159.955 233.423C159.955 233.666 159.955 233.943 159.923 234.185C158.897 234.947 157.742 234.601 156.652 234.636C155.497 234.67 155.016 235.155 155.016 236.402C155.016 243.78 154.952 251.123 155.049 258.501C155.081 261.099 156.299 262.969 158.704 263.766C159.185 263.939 159.602 264.112 159.923 264.528C159.923 264.77 159.923 265.047 159.955 265.29C159.089 266.087 158.031 265.844 157.037 265.844C138.982 265.844 120.96 265.844 102.906 265.844C102.489 265.844 102.04 265.844 101.623 265.844C99.0897 265.844 98.3521 266.918 99.0255 269.62C99.1859 270.208 99.5066 270.486 100.02 270.555C100.725 270.659 101.399 270.624 102.104 270.624C120.415 270.624 138.726 270.624 157.037 270.624C158.031 270.624 159.089 270.382 159.955 271.178C159.955 271.525 159.955 271.871 159.955 272.217C159.185 272.979 158.255 272.806 157.357 272.806C147.416 272.806 137.475 272.806 127.534 272.806C126.989 272.806 126.476 272.841 125.931 272.841C124.969 272.841 124.584 273.36 124.584 274.33C124.584 274.781 124.584 275.266 124.584 275.716C124.584 289.225 124.584 302.733 124.584 316.242C124.584 319.151 124.584 319.152 127.213 319.152C137.219 319.152 147.192 319.152 157.197 319.152C158.127 319.152 159.153 318.944 159.955 319.74C159.955 320.087 159.955 320.433 159.955 320.745C148.09 320.745 136.257 320.779 124.391 320.779C124.071 321.438 124.231 322.13 124.231 322.823C124.231 357.114 124.231 391.44 124.199 425.732C124.199 426.39 124.391 427.117 124.039 427.775L124.071 427.741C122.275 428.122 120.447 427.948 118.651 427.81C118.234 427.117 118.427 426.355 118.427 425.628C118.427 375.265 118.427 324.901 118.427 274.538C118.427 271.871 118.683 272.183 116.182 272.148C110.474 272.148 104.766 272.079 99.0255 272.183C97.7108 272.217 97.4221 271.733 97.4863 270.451C97.5825 268.546 97.5183 266.641 97.5183 264.736C98.0314 264.216 98.6407 264.493 99.1859 264.493C111.34 264.459 123.461 264.493 135.615 264.459C136.128 264.459 136.898 264.978 137.251 264.008C135.583 262.623 135.038 260.787 135.07 258.501C135.134 243.988 135.102 229.475 135.102 214.927C135.102 213.922 135.134 213.091 133.948 212.745C132.537 212.329 133.499 210.805 133.018 209.939C129.522 209.558 126.059 209.87 122.564 209.731C122.018 209.696 121.409 210.008 120.928 209.489C121.185 208.553 121.89 208.934 122.403 208.934C125.546 208.9 128.689 208.9 131.831 208.934C132.665 208.934 133.338 208.9 133.178 207.687C133.114 207.133 133.338 206.44 133.787 206.406C135.551 206.198 135.038 204.847 135.102 203.739C135.23 201.522 134.781 199.27 135.359 197.088C139.079 196.95 142.831 196.811 146.55 197.158L146.518 197.123C146.935 199.27 146.583 201.418 146.711 203.566C146.775 204.397 146.518 205.263 146.871 206.094C147.897 206.233 148.603 206.718 148.475 207.999C148.41 208.796 148.795 208.969 149.437 208.934C150.687 208.865 152.387 209.523 152.098 206.995C152.066 206.648 152.387 206.44 152.611 206.44C154.279 206.371 153.926 205.055 153.926 203.981C153.926 201.73 153.926 199.478 153.926 197.227C155.946 196.707 157.967 196.915 159.987 197.054Z" fill="#5983AF"/>
<path d="M405.595 253.894C406.493 252.197 406.878 250.361 406.846 248.456C406.814 247.036 407.391 246.828 408.481 247.001C412.265 247.486 416.081 247.936 419.865 248.421C422.142 248.698 422.142 248.733 422.527 246.343C422.334 251.192 422.174 256.042 421.981 260.891C421.949 261.584 421.981 262.276 421.981 262.934C422.238 263.246 422.366 263.627 422.366 264.078C422.463 265.983 421.917 267.888 422.078 269.793C422.11 272.633 421.757 275.439 421.661 278.244C421.565 281.396 420.506 284.133 417.652 285.588C415.889 286.488 415.279 286.107 415.055 284.029C415.055 281.085 414.959 278.175 415.279 275.231C414.895 277.829 414.638 280.427 414.702 283.094C414.734 284.063 414.895 285.068 414.253 285.899C413.323 286.384 412.361 286.384 411.431 285.934C410.533 284.652 410.886 283.163 411.046 281.777C411.303 279.491 411.143 277.205 411.079 274.919C410.758 278.383 411.175 281.916 410.245 285.31C408.866 286.003 408.064 284.999 407.327 284.029C406.717 283.232 406.397 282.228 406.204 281.189C405.819 278.972 405.306 276.79 405.306 274.538C405.659 273.499 405.819 272.425 405.787 271.317C405.659 268.615 405.98 265.913 405.948 263.212C405.884 265.221 405.435 267.195 405.435 269.204C405.435 270.07 405.563 270.936 405.146 271.732C404.312 272.217 404.248 271.351 404.088 270.936C402.388 266.987 401.747 262.9 403.414 258.743C404.12 257.15 404.28 255.21 405.595 253.894Z" fill="#FD9993"/>
<path d="M422.014 263.835C422.014 263.523 422.014 263.212 422.014 262.935C444.846 262.935 467.647 262.935 490.479 262.969C492.82 262.969 492.531 262.727 492.531 265.186C492.531 267.541 492.531 269.931 492.531 272.287C491.088 272.633 489.645 272.356 488.17 272.46C487.625 272.495 487.016 272.287 486.503 272.633C486.471 273.361 486.374 274.123 486.374 274.85C486.374 316.45 486.374 358.015 486.374 399.615C486.374 402.074 486.374 402.074 484.13 402.074C483.071 402.074 481.981 402.143 480.923 402.039C479.704 401.936 479.287 402.351 479.287 403.737C479.351 411.045 479.319 418.388 479.319 425.697C479.319 426.39 479.383 427.082 479.063 427.706C475.439 428.087 471.815 427.914 468.192 427.81C467.807 427.256 467.967 426.598 467.967 425.974C467.967 418.666 467.903 411.322 467.999 404.014C467.999 402.455 467.647 402.005 466.171 402.005C448.149 402.074 430.095 402.039 412.073 402.039C412.073 401.728 412.073 401.451 412.073 401.139C412.939 400.273 413.997 400.515 414.991 400.515C435.579 400.515 456.134 400.515 476.722 400.515C478.903 400.515 481.115 400.481 483.296 400.515C484.514 400.515 485.092 399.996 484.995 398.68C484.963 398.16 484.995 397.64 484.995 397.121C484.995 356.837 484.995 316.554 484.995 276.27C484.995 272.806 484.995 272.806 481.724 272.806C463.382 272.806 445.071 272.806 426.728 272.806C426.086 272.806 425.445 272.737 424.804 272.772C424.066 272.564 423.232 272.495 423.842 271.282C424.74 270.832 425.734 270.971 426.696 270.971C447.091 270.971 467.486 270.971 487.882 270.971C488.427 270.971 488.94 270.971 489.485 270.971C491.249 270.936 491.409 270.763 491.409 268.858C491.409 263.939 491.826 264.493 487.4 264.493C466.588 264.493 445.744 264.493 424.932 264.459C423.906 264.493 422.848 264.77 422.014 263.835Z" fill="#5D86B1"/>
<path d="M405.37 138.204C405.37 137.858 405.338 137.512 405.338 137.165C406.172 136.403 407.166 136.611 408.096 136.611C419.416 136.611 430.736 136.611 442.088 136.611C442.345 136.611 442.633 136.611 442.89 136.611C445.519 136.611 445.519 136.611 445.519 133.701C445.519 107.377 445.519 81.0869 445.519 54.7622C445.519 54.2427 445.519 53.7231 445.487 53.2035C445.455 52.3722 445.07 51.9566 444.301 51.9219C443.756 51.8873 443.243 51.8873 442.697 51.8873C391.902 51.8873 341.074 51.8873 290.279 51.8873C290.118 51.8873 289.958 51.8873 289.798 51.8873C287.649 51.9219 287.553 51.9912 287.553 54.3466C287.553 68.7212 287.553 83.0959 287.553 97.4359C287.553 98.4403 287.777 99.5487 287.072 100.415C286.751 100.415 286.43 100.415 286.11 100.415C285.982 100.345 285.949 100.311 285.982 100.241C286.014 100.172 286.046 100.138 286.078 100.138C286.11 99.4448 286.206 98.7521 286.206 98.094C286.206 82.8188 286.238 67.5089 286.174 52.2337C286.174 50.7443 286.463 50.3286 287.906 50.3286C340.305 50.3633 392.704 50.3632 445.103 50.3632C445.68 50.3632 446.289 50.1901 446.802 50.6404C446.995 51.1946 446.898 51.7834 446.898 52.3376C446.898 80.2902 446.898 108.243 446.898 136.195C446.898 136.75 447.027 137.338 446.738 137.893C446.193 138.204 445.584 138.031 445.006 138.031C432.468 138.031 419.961 138.031 407.423 138.031C406.846 138.031 406.236 137.858 405.691 138.204H405.563H405.37Z" fill="#6289B3"/>
<path d="M241.728 87.5986C241.792 88.9841 240.862 89.1573 240.381 89.6769C239.002 91.097 237.559 92.4479 236.084 93.7988C235.892 93.9719 235.571 94.353 235.25 94.0412C235.026 93.8334 235.09 93.4177 235.282 93.2792C237.463 91.5127 239.162 89.1573 241.728 87.5986Z" fill="#668CB5"/>
<path d="M459.982 216.451C460.175 216.624 460.335 216.728 460.463 216.901C462.002 218.806 463.542 220.711 465.049 222.651C465.273 222.928 465.69 223.24 465.177 223.621C464.792 223.898 464.568 223.552 464.407 223.309C463.061 221.404 461.586 219.638 460.046 217.906C459.79 217.629 459.533 217.282 459.63 216.832C459.662 216.693 459.822 216.589 459.982 216.451Z" fill="#658BB5"/>
<path d="M145.589 169.309C147.545 167.092 149.501 165.222 151.585 163.525C151.841 163.317 152.002 163.005 152.355 163.386C152.547 163.594 152.547 163.802 152.355 163.975C150.302 165.741 148.571 167.924 146.294 169.413C146.134 169.448 145.941 169.344 145.589 169.309Z" fill="#668CB5"/>
<path d="M146.615 97.5395C145.589 97.8166 145.428 97.1931 145.108 96.8814C143.472 95.2881 142.125 93.383 140.746 91.5472C140.522 91.2354 140.426 90.9237 140.682 90.6812C140.746 90.612 141.099 90.7159 141.227 90.8544C142.991 93.002 144.723 95.1841 146.615 97.5395Z" fill="#648BB4"/>
<path d="M389.529 401.07C389.561 401.52 389.561 401.971 389.593 402.421C389.465 402.456 389.336 402.49 389.208 402.49C388.888 402.109 388.695 401.659 388.663 401.105C388.952 400.793 389.24 400.793 389.529 401.07Z" fill="#8D9AB7"/>
<path d="M290.279 187.286C287.81 190.611 287.906 194.906 290.728 197.781C296.436 203.67 302.529 209.073 309.552 213.126C309.52 213.888 309.488 214.615 309.488 215.377C309.488 257.635 309.488 299.893 309.52 342.116C309.52 343.744 309.295 344.299 307.596 344.299C262.123 344.229 216.651 344.229 171.179 344.299C169.575 344.299 169.19 343.918 169.19 342.151C169.222 265.844 169.222 189.537 169.222 113.231C169.222 110.702 168.934 111.014 171.243 111.014C216.651 111.014 262.091 111.014 307.499 110.945C309.231 110.945 309.52 111.499 309.52 113.196C309.456 139.763 309.488 166.296 309.488 192.863C306.281 191.373 303.074 189.884 299.867 188.394C299.322 188.117 298.745 188.048 298.168 188.117C296.66 187.632 295.763 186.282 294.576 185.312C292.107 183.199 289.734 180.947 287.329 178.765C285.629 177.206 285.597 176.86 286.303 174.609C286.912 172.669 286.719 172.357 284.891 172.288C284.154 172.253 283.32 172.08 282.679 172.357C281.075 173.05 280.049 172.184 278.959 171.18C276.874 169.274 274.822 167.335 272.706 165.499C272.385 165.222 272.064 164.91 271.647 164.702C270.846 164.356 270.172 164.529 269.627 165.222C269.05 165.949 269.114 166.711 269.659 167.439C270.204 168.166 270.814 168.79 271.487 169.378C273.732 171.353 275.912 173.362 278.125 175.371C279.504 176.652 279.568 177.241 278.253 178.592C274.02 182.956 267.575 185.104 261.322 182.437C254.972 179.735 251.156 173.604 250.964 166.607C250.739 158.571 256.094 149.288 266.773 148.942C272.898 148.734 278.606 152.163 281.556 159.126C281.621 159.299 281.685 159.437 281.749 159.611C282.903 162.693 283.224 162.866 286.238 162.659C287.297 162.589 287.521 162.139 287.265 161.1C286.495 157.983 285.308 155.142 283.513 152.544C276.522 142.43 262.123 140.283 252.888 149.6C246.57 155.974 244.486 164.044 247.148 172.981C249.809 181.917 255.774 187.217 264.368 188.464C271.295 189.468 277.323 187.009 282.198 181.502C282.871 180.74 283.577 180.255 284.41 181.051C286.174 182.714 288.098 184.203 289.766 186.004C290.022 186.42 290.311 186.766 290.279 187.286Z" fill="#ECE9E9"/>
<path d="M287.04 100.38C287.008 99.8605 286.976 99.341 286.976 98.8214C286.976 83.5462 286.976 68.2363 286.944 52.9611C286.944 51.6795 287.168 51.1946 288.483 51.1946C340.465 51.2292 392.447 51.2292 444.429 51.1946C445.68 51.1946 446.033 51.5756 446.033 52.9265C446.001 80.4634 446.001 107.966 446.033 135.503C446.033 136.646 445.937 137.235 444.622 137.235C431.538 137.165 418.454 137.2 405.371 137.165C403.992 129.233 401.362 127.64 393.698 126.116C389.433 125.25 385.168 125.943 380.967 126.67C377.471 127.294 376.093 128.991 375.451 132.801C375.547 134.429 375.932 136.092 374.649 137.442C373.976 137.719 373.27 137.65 372.597 137.65C355.505 137.65 338.413 137.65 321.32 137.65C321 137.65 320.679 137.616 320.358 137.65C319.108 137.72 318.53 137.2 318.595 135.711C318.755 132.732 318.466 129.718 318.755 126.739C319.396 126.185 320.166 126.289 320.903 126.289C325.938 126.289 330.941 126.289 335.975 126.289C337.803 126.289 337.9 126.22 337.9 124.245C337.9 104.225 337.9 84.2043 337.9 64.1837C337.9 62.244 337.803 62.1747 335.975 62.1747C324.848 62.1747 313.752 62.1747 302.625 62.1747C300.733 62.1747 300.669 62.244 300.669 64.3569C300.669 75.5102 300.669 86.6289 300.669 97.7823C300.669 98.6828 300.893 99.6527 300.22 100.415C295.762 100.38 291.401 100.38 287.04 100.38Z" fill="#FEFEFE"/>
<path d="M318.755 126.081C318.435 123.726 318.659 121.37 318.627 119.05C318.595 115.586 318.659 112.157 318.595 108.693C318.499 103.636 315.517 100.484 310.835 100.449C307.596 100.449 304.357 100.449 301.086 100.415C300.445 100.034 300.477 99.3755 300.477 98.752C300.477 87.1138 300.477 75.4409 300.445 63.8026C300.445 62.4518 300.926 62.0015 302.144 62.0015C313.528 62.0361 324.88 62.0361 336.264 62.0015C337.611 62.0015 337.996 62.5557 337.996 63.9412C337.964 84.1349 337.964 104.294 337.996 124.488C337.996 125.839 337.643 126.462 336.264 126.462C330.941 126.393 325.586 126.428 320.263 126.428C319.749 126.428 319.172 126.497 318.755 126.081Z" fill="#FEFEFE"/>
<path d="M160.019 319.706C156.556 319.741 153.093 319.775 149.629 319.81C141.676 319.81 133.723 319.775 125.771 319.844C124.52 319.844 124.167 319.498 124.167 318.113C124.199 303.357 124.199 288.567 124.199 273.811C124.199 272.806 124.135 272.079 125.482 272.079C136.866 272.148 148.218 272.114 159.602 272.114C159.763 272.114 159.923 272.183 160.083 272.183C160.019 288.047 160.019 303.876 160.019 319.706Z" fill="#FEFEFE"/>
<path d="M159.987 271.213C139.912 271.213 119.806 271.213 99.731 271.248C98.7369 271.248 98.352 271.005 98.352 269.828C98.2879 265.29 98.2558 265.29 102.457 265.29C121.634 265.29 140.81 265.325 159.987 265.325C159.987 267.299 159.987 269.239 159.987 271.213Z" fill="#FEFEFE"/>
<path d="M287.649 355.036C289.028 354.863 290.439 354.898 291.818 355.036C292.235 355.66 292.107 356.352 292.107 357.045C292.107 379.768 292.107 402.49 292.107 425.212C292.107 427.394 292.043 427.429 290.022 427.429C289.702 427.429 289.381 427.394 289.06 427.429C287.745 427.602 287.264 426.979 287.264 425.559C287.296 402.594 287.296 379.664 287.296 356.699C287.328 356.11 287.264 355.521 287.649 355.036Z" fill="#FEFEFE"/>
<path d="M159.955 264.563C156.043 263.87 154.664 262.138 154.664 257.843C154.664 250.708 154.664 243.572 154.664 236.437C154.664 234.255 154.664 234.255 156.78 234.255C157.838 234.255 158.897 234.255 159.987 234.22C159.955 244.334 159.955 254.448 159.955 264.563Z" fill="#FEFEFE"/>
<path d="M159.987 233.458C158.544 233.458 157.101 233.458 155.658 233.493C154.888 233.527 154.632 233.215 154.632 232.384C154.728 225.179 154.471 217.975 154.792 210.77C154.824 209.835 155.177 209.593 155.946 209.627C157.293 209.662 158.608 209.627 159.955 209.627C159.987 217.559 159.987 225.491 159.987 233.458Z" fill="#FEFEFE"/>
<path d="M318.755 126.081C324.527 126.046 330.3 125.977 336.072 126.046C337.451 126.046 337.739 125.596 337.739 124.21C337.707 104.19 337.707 84.1692 337.739 64.1486C337.739 62.7285 337.451 62.3128 336.072 62.3475C324.912 62.4168 313.753 62.4168 302.593 62.3475C301.31 62.3475 300.861 62.6246 300.861 64.114C300.925 75.6483 300.893 87.1827 300.893 98.717C300.893 99.3059 300.829 99.8601 301.118 100.414C300.797 100.414 300.476 100.414 300.156 100.38C300.156 88.2218 300.188 76.064 300.188 63.8715C300.188 61.343 299.899 61.6201 302.368 61.6201C313.849 61.6201 325.329 61.6201 336.809 61.5854C338.028 61.5854 338.445 61.8625 338.445 63.2827C338.413 83.8575 338.413 104.467 338.445 125.042C338.445 126.358 338.156 126.843 336.841 126.808C330.813 126.739 324.784 126.774 318.755 126.739C318.723 126.531 318.723 126.289 318.755 126.081Z" fill="#5882AF"/>
<path d="M287.649 355.036C287.649 378.348 287.649 401.659 287.681 424.97C287.681 425.628 287.264 426.736 288.098 426.944C289.22 427.187 290.439 427.117 291.562 426.875C292.075 426.771 291.818 425.836 291.818 425.282C291.818 417.661 291.818 410.041 291.818 402.421C291.818 386.626 291.818 370.797 291.818 355.002C292.043 355.002 292.267 355.036 292.492 355.036C292.492 366.709 292.524 378.348 292.524 390.02C292.524 401.901 292.524 413.817 292.524 425.697C292.524 426.39 292.492 427.083 292.46 427.776C290.632 427.776 288.836 427.741 287.008 427.741C286.976 427.464 286.944 427.152 286.944 426.875C286.944 402.94 286.944 378.971 286.944 355.036C287.2 355.036 287.425 355.036 287.649 355.036Z" fill="#5A83AF"/>
<path d="M159.987 208.865C159.089 208.865 158.191 208.9 157.261 208.9C154.728 208.9 154.696 208.9 154.664 206.129C154.632 203.773 154.696 201.418 154.632 199.063C154.6 198.058 154.92 197.746 155.818 197.781C157.197 197.85 158.576 197.816 159.955 197.816C159.987 201.487 159.987 205.159 159.987 208.865Z" fill="#FEFEFE"/>
<path d="M318.723 126.774C318.723 129.614 318.819 132.42 318.723 135.26C318.659 136.784 319.012 137.269 320.519 137.269C333.218 137.2 345.917 137.234 358.615 137.234C364.003 137.234 369.39 137.269 374.778 137.269C375.162 137.892 374.714 138.066 374.329 138.273C373.559 138.551 372.725 138.481 371.956 138.481C354.703 138.481 337.451 138.481 320.166 138.516C319.685 138.516 319.204 138.481 318.723 138.377C318.691 138.239 318.627 138.135 318.595 137.996C318.402 134.221 318.21 130.48 318.723 126.774Z" fill="#5881AE"/>
<path d="M412.009 366.813C407.519 366.778 403.062 366.709 398.572 366.778C397.322 366.813 397.001 366.397 396.937 365.046C396.552 355.209 396.103 345.407 395.654 335.57C395.526 332.799 395.366 330.062 395.237 327.291C394.789 316.554 394.307 305.816 393.859 295.113C395.366 295.459 396.232 296.741 397.258 297.745C399.567 300.032 401.843 302.387 404.249 304.569C405.948 306.093 407.519 305.955 408.995 304.153C412.298 300.101 415.697 296.117 419.128 292.169C419.545 291.684 419.866 290.714 420.764 291.476C421.565 293.866 421.693 296.429 422.014 298.923C423.393 309.626 424.932 320.329 426.311 331.067C426.439 332.106 426.664 333.111 427.466 333.803C427.466 334.046 427.466 334.184 427.786 334.184C443.179 333.942 458.604 334.15 473.996 334.08C474.638 334.08 475.279 333.976 475.824 334.496C475.824 335.362 475.183 335.293 474.702 335.397C474.028 335.535 473.323 335.466 472.617 335.466C458.475 335.466 444.301 335.466 430.159 335.466C429.903 335.466 429.614 335.466 429.358 335.466C427.049 335.501 426.985 335.57 427.305 338.029C427.53 339.865 427.818 341.666 428.011 343.502C428.171 344.922 428.813 345.545 430.127 345.442C430.672 345.407 431.186 345.442 431.731 345.442C445.68 345.442 459.598 345.442 473.547 345.476C474.445 345.476 475.632 344.957 476.113 346.411C475.375 346.758 474.638 346.515 473.9 346.515C459.277 346.55 444.654 346.515 430.031 346.515C429.518 346.515 429.005 346.619 428.299 346.342C429.005 346.619 429.518 346.515 429.999 346.515C444.622 346.515 459.245 346.515 473.868 346.55C474.413 346.55 475.151 346.1 475.567 347C474.798 347.866 473.772 347.589 472.842 347.589C459.245 347.624 445.68 347.589 432.083 347.589C431.602 347.589 431.121 347.589 430.64 347.589C428.812 347.624 428.78 347.693 428.812 349.633C428.812 349.944 428.813 350.256 428.845 350.533C429.069 351.469 429.101 352.438 429.358 353.374C429.422 353.685 429.454 353.997 429.486 354.274C429.935 357.773 430.48 361.236 430.865 364.735C431.089 366.778 430.737 367.229 428.845 367.263C423.81 367.298 418.807 367.298 413.773 367.263C413.163 367.333 412.522 367.263 412.009 366.813Z" fill="#6DB5DE"/>
<path d="M420.41 291.303C416.819 295.563 413.195 299.789 409.604 304.049C407.487 306.578 405.948 306.786 403.607 304.569C400.336 301.452 397.065 298.265 393.826 295.147C390.716 291.649 387.284 288.566 383.981 285.31C379.844 281.188 375.612 277.101 371.507 272.945C369.936 271.386 369.936 269.273 371.347 267.576C377.728 259.99 384.11 252.439 390.523 244.853C390.844 244.472 391.197 244.126 391.549 243.78C393.217 242.775 394.66 243.156 396.039 244.507C399.214 247.659 402.388 250.742 405.595 253.859C404.793 256.284 403.799 258.639 403.19 261.099C402.26 264.909 403.382 268.407 404.954 271.802C405.723 272.564 405.306 273.672 405.627 274.607C405.948 276.755 406.269 278.902 406.621 281.05C406.974 283.232 408 284.86 410.117 285.414C410.534 285.587 410.983 285.761 411.431 285.691C412.361 285.691 413.291 285.691 414.189 285.691C414.702 285.795 414.767 285.449 414.863 285.033C414.959 284.652 414.831 284.098 415.44 284.098C415.312 285.657 415.889 285.934 417.172 285.31C419.352 284.202 420.795 282.47 421.052 279.838C421.373 276.547 421.501 273.222 421.693 269.897C422.816 269.793 423.2 270.659 423.553 271.559C423.842 271.94 424.098 272.356 424.547 272.529C426.664 273.534 428.171 275.404 429.39 277.378C430.191 278.695 429.935 280.426 428.876 281.708C427.85 282.955 426.952 284.34 425.83 285.449C425.445 285.83 425.06 286.211 424.708 286.661C423.425 288.358 422.206 290.125 420.41 291.303Z" fill="#202B6D"/>
<path d="M387.445 327.603C387.733 337.198 388.022 346.758 388.31 356.353C388.343 357.045 388.31 357.738 388.31 358.431C387.829 358.985 387.188 359.02 386.547 359.02C384.013 359.02 381.48 359.089 378.947 358.985C378.658 358.985 378.337 358.985 378.049 358.985C376.574 358.881 375.034 359.435 373.655 358.466C371.507 352.508 369.358 346.585 367.242 340.627C365.671 336.228 364.163 331.794 362.656 327.396C370.577 327.396 378.498 327.395 386.386 327.43C386.707 327.43 387.06 327.534 387.445 327.603Z" fill="#6DB5DE"/>
<path d="M401.073 167.023C401.426 166.746 401.747 166.919 402.099 167.058C402.099 174.262 402.132 181.467 402.099 188.672C402.099 189.815 402.164 190.577 403.51 190.75C405.082 190.958 406.044 192.135 406.397 193.798C406.717 195.322 406.749 196.915 406.397 198.405C405.98 200.344 404.537 201.487 402.677 201.557C402.613 201.557 402.58 201.557 402.516 201.557C397.418 201.938 396.039 200.275 396.295 194.906C396.424 192.551 397.482 190.888 399.662 190.577C400.849 190.403 400.849 189.815 400.849 188.879C400.817 182.229 400.849 175.613 400.849 168.963C400.849 168.374 400.785 167.681 401.073 167.023Z" fill="#FDFDFE"/>
<path d="M408.161 223.517C408.161 225.076 408.161 226.635 408.161 228.228C408.096 228.228 408.064 228.228 408 228.228C408 226.669 408 225.076 408 223.517C408.032 223.483 408.096 223.483 408.161 223.517Z" fill="#81B1D3"/>
<path d="M378.69 358.5C381.897 358.5 385.072 358.465 388.278 358.465C388.407 362.206 388.535 365.947 388.631 369.688C388.855 377.966 389.048 386.245 389.24 394.558C388.278 395.251 387.348 395.147 386.386 394.592C383.629 387.353 381.063 380.045 378.626 372.667C377.921 368.406 378.37 364.077 378.273 359.816C378.273 359.297 378.402 358.846 378.69 358.5Z" fill="#FEFEFE"/>
<path d="M373.591 358.465C375.066 358.465 376.509 358.5 377.984 358.5C378.433 358.881 378.369 359.401 378.369 359.92C378.369 363.037 378.369 366.155 378.369 369.238C378.369 369.723 378.465 370.311 377.92 370.589C376.317 366.64 374.906 362.553 373.591 358.465Z" fill="#FBFBFC"/>
<path d="M389.529 401.07C389.24 401.07 388.952 401.105 388.663 401.105C387.926 399.234 387.124 397.364 386.707 395.355C387.541 394.593 388.407 394.662 389.273 395.32C389.369 397.225 389.433 399.13 389.529 401.07Z" fill="#FBFBFC"/>
<path d="M377.92 370.623C377.952 366.57 377.952 362.552 377.985 358.5C378.209 358.5 378.466 358.5 378.69 358.5C378.658 363.21 378.658 367.921 378.626 372.632C378.402 371.939 378.145 371.281 377.92 370.623Z" fill="#5881AE"/>
<path d="M389.273 395.285C388.407 395.285 387.573 395.32 386.707 395.32C386.611 395.043 386.515 394.8 386.387 394.523C387.349 394.523 388.279 394.523 389.241 394.489C389.273 394.766 389.273 395.043 389.273 395.285Z" fill="#648AB3"/>
<path d="M318.755 138.308C319.108 137.789 319.621 137.962 320.102 137.962C338.092 137.962 356.114 137.962 374.105 137.962C374.265 137.962 374.425 137.996 374.586 137.996C375.067 138.551 374.97 139.243 374.906 139.902C374.778 140.525 374.682 141.183 374.682 141.841C374.778 143.4 374.361 144.924 374.361 146.483C374.361 153.098 376.991 156.77 382.923 158.398C383.853 158.641 384.815 158.779 385.745 159.056C386.387 159.264 387.06 159.541 387.092 160.338C387.188 162.555 387.605 164.806 386.836 166.954C385.649 166.988 384.462 167.023 383.276 167.057C380.197 167.057 377.087 166.711 374.008 167.265C369.134 168.166 365.863 171.179 364.035 176.133C362.945 179.111 361.053 181.571 359.482 184.203C354.383 192.863 349.22 201.418 344.121 210.077C343.448 211.221 342.966 211.221 342.004 210.597C339.696 209.142 337.323 207.861 335.046 206.337C333.667 205.401 332.641 205.124 331.903 207.029C327.959 204.397 324.046 201.73 320.038 199.167C319.076 198.543 318.755 197.885 318.755 196.707C318.787 177.276 318.755 157.809 318.755 138.308Z" fill="#FEFEFE"/>
<path d="M386.771 166.954C386.771 165.048 386.675 163.143 386.803 161.273C386.9 159.818 386.194 159.541 385.168 159.368C382.41 158.883 379.78 158.086 377.504 156.216C374.97 154.138 374.104 151.193 373.912 147.937C373.784 145.79 374.104 143.712 374.297 141.599C374.682 141.391 375.355 141.703 375.483 141.079C375.644 140.352 374.778 140.386 374.521 139.936C374.521 139.278 374.521 138.655 374.521 137.996C374.585 137.754 374.682 137.477 374.746 137.234C374.97 135.78 375.163 134.29 375.387 132.835C375.548 133.875 376.381 133.563 376.926 133.597C380.326 133.84 383.725 134.082 387.156 134.221C388.214 134.256 388.727 134.671 389.112 135.745C391.453 141.945 393.923 148.145 396.296 154.345C397.097 156.458 397.129 158.744 397.29 160.961C397.418 162.97 397.29 164.979 397.29 166.988C393.826 166.988 390.299 166.954 386.771 166.954Z" fill="#FD9993"/>
<path d="M425.445 285.414C426.439 284.202 427.401 282.99 428.395 281.812C429.935 279.942 429.903 277.933 428.235 276.201C427.048 274.988 425.83 273.776 424.611 272.564C425.124 272.113 425.734 272.356 426.311 272.356C445.423 272.356 464.568 272.356 483.68 272.287C485.284 272.287 485.572 272.772 485.572 274.4C485.54 315.93 485.54 357.461 485.572 399.026C485.572 400.862 485.059 401.139 483.52 401.139C459.694 401.104 435.867 401.104 412.041 401.104C412.041 399.164 412.041 397.225 412.041 395.285C412.746 394.419 413.74 394.696 414.606 394.696C428.973 394.661 443.339 394.696 457.737 394.696C463.093 394.696 468.416 394.696 473.771 394.696C475.663 394.696 475.728 394.627 475.728 392.514C475.728 378.139 475.728 363.765 475.728 349.39C475.728 348.351 475.631 347.312 476.08 346.342C475.567 345.684 474.894 346.03 474.284 346.03C459.373 345.996 444.493 345.996 429.582 346.03C428.267 346.03 427.722 345.753 427.626 344.229C427.401 341.527 426.952 338.86 426.503 336.228C426.279 334.842 427.016 334.912 427.882 334.912C438.721 334.912 449.56 334.912 460.399 334.912C464.985 334.912 469.57 334.912 474.188 334.912C474.765 334.912 475.375 335.119 475.888 334.669C475.663 333.872 475.728 333.076 475.728 332.279C475.728 317.87 475.728 303.461 475.728 289.051C475.728 288.462 475.728 287.908 475.728 287.319C475.728 286.419 475.407 285.899 474.477 285.968C473.996 286.003 473.515 285.968 473.034 285.968C457.994 285.968 442.922 285.968 427.882 285.968C427.049 285.899 426.151 286.142 425.445 285.414Z" fill="#FEFEFE"/>
<path d="M412.009 366.813C417.653 366.778 423.329 366.744 428.973 366.778C430.191 366.778 430.768 366.744 430.48 365.012C429.838 361.409 429.55 357.738 429.101 354.101C429.582 353.373 430.32 353.512 430.993 353.512C433.655 353.477 436.316 353.477 438.978 353.512C439.908 353.512 440.485 353.304 440.485 352.092C440.485 350.879 439.908 350.672 438.946 350.672C436.06 350.672 433.206 350.706 430.319 350.672C429.646 350.672 428.909 350.81 428.428 350.083C428.011 347.035 428.011 347.035 430.929 347.035C445.071 347.035 459.245 347.035 473.387 347.035C474.092 347.035 474.766 347.139 475.471 347.173C476.016 347.658 475.856 348.351 475.856 348.94C475.856 363.592 475.856 378.243 475.856 392.93C475.856 394.765 475.728 394.869 474.028 394.904C453.889 394.904 433.751 394.904 413.612 394.904C413.067 394.904 412.522 394.973 412.073 394.592C412.041 385.275 412.009 376.061 412.009 366.813Z" fill="#FEFEFE"/>
<path d="M412.041 394.523C432.532 394.523 453.056 394.489 473.547 394.558C475.087 394.558 475.471 394.142 475.471 392.48C475.407 377.378 475.439 362.241 475.439 347.139C474.99 346.342 474.285 346.723 473.708 346.723C459.181 346.689 444.654 346.723 430.095 346.689C429.518 346.689 428.941 346.827 428.011 346.342C444.269 346.342 460.175 346.342 476.081 346.342C476.113 346.931 476.177 347.485 476.177 348.074C476.177 363.142 476.145 378.209 476.209 393.242C476.209 394.939 475.728 395.32 474.221 395.32C453.505 395.285 432.757 395.285 412.041 395.285C412.073 395.043 412.041 394.766 412.041 394.523Z" fill="#5F87B2"/>
<path d="M398.636 152.094C398.636 148.561 398.636 145.097 398.636 141.668C401.779 142.015 404.088 143.989 404.313 146.448C404.537 148.977 402.581 150.986 398.636 152.094Z" fill="#FC9993"/>
<path d="M290.279 187.286C288.226 185.347 286.142 183.476 284.154 181.502C283.32 180.671 282.967 181.363 282.518 181.883C279.247 185.658 275.239 187.979 270.493 188.914C259.173 191.166 247.693 182.402 245.961 170.071C244.614 160.407 248.687 151.09 256.287 146.414C264.176 141.599 273.507 142.431 280.53 148.631C284.474 152.129 286.815 156.667 287.874 162.035C288.066 162.971 287.842 163.317 286.944 163.144C286.88 163.144 286.848 163.144 286.783 163.144C283.929 163.456 282.198 162.728 281.011 159.23C278.446 151.852 270.557 147.938 263.502 149.774C255.806 151.783 250.996 158.849 251.38 167.508C251.733 175.198 257.505 181.848 264.721 182.922C269.948 183.684 274.373 181.952 278.157 178.038C278.895 177.276 279.087 176.791 278.125 175.96C275.335 173.57 272.641 171.007 269.916 168.513C268.537 167.266 268.312 165.915 269.274 164.806C270.236 163.629 271.455 163.663 272.802 164.91C275.335 167.231 277.836 169.552 280.37 171.838C280.723 172.184 280.947 172.531 281.813 172.08C283.384 171.284 285.372 171.942 287.168 172.15C287.521 172.184 287.425 172.6 287.361 172.877C287.296 173.223 287.168 173.535 287.072 173.847C286.046 177.103 286.078 177.068 288.547 179.32C291.754 182.264 294.961 185.208 298.167 188.152C296.147 189.365 295.859 190.369 296.756 192.898C294.576 191.027 292.427 189.157 290.279 187.286Z" fill="black"/>
<path d="M298.584 193.936C302.946 196.153 307.339 198.37 311.7 200.656C313.207 201.418 313.624 202.873 312.855 204.189C312.085 205.505 310.738 205.678 309.423 204.57C308.269 203.566 307.082 202.561 305.992 201.453C305.287 200.725 304.902 200.725 304.517 201.73C304.261 202.353 303.94 202.942 303.619 203.566C303.395 203.947 303.106 204.189 302.689 203.912C302.368 203.704 302.368 203.358 302.529 203.011C302.561 202.907 302.625 202.803 302.689 202.7C303.972 199.686 303.972 199.686 301.631 197.469C300.509 196.396 299.386 195.356 298.264 194.317C298.168 193.971 298.232 193.798 298.584 193.936Z" fill="#010101"/>
<path d="M298.585 193.936C298.456 194.04 298.36 194.179 298.232 194.283C297.815 194.144 297.526 193.832 297.237 193.348C297.847 193.313 298.232 193.555 298.585 193.936Z" fill="#36211F"/>
<path d="M119.293 349.667C119.293 324.52 119.293 299.339 119.325 274.192C119.325 273.534 118.844 272.46 119.774 272.252C120.896 272.01 122.115 271.975 123.237 272.356C123.365 272.391 123.429 272.876 123.429 273.118C123.461 273.534 123.429 273.915 123.429 274.33C123.429 324.52 123.429 374.745 123.397 424.935C123.397 425.628 123.814 426.702 123.012 426.909C121.89 427.152 120.672 427.083 119.517 426.875C119.036 426.805 119.261 425.974 119.261 425.455C119.261 421.021 119.261 416.553 119.261 412.119C119.293 391.302 119.293 370.485 119.293 349.667Z" fill="#FEFEFE"/>
<path d="M135.904 240.94C135.904 235.017 135.936 229.059 135.872 223.136C135.84 221.647 136.289 221.3 137.603 221.335C139.944 221.439 142.317 221.404 144.658 221.335C145.653 221.3 145.909 221.681 145.909 222.72C145.877 234.774 145.909 246.828 145.877 258.882C145.877 262.069 143.696 264.459 140.906 264.493C138.117 264.528 135.968 262.138 135.936 258.917C135.872 252.924 135.904 246.932 135.904 240.94Z" fill="#FEFEFE"/>
<path d="M143.825 264.459C146.486 262.38 146.615 259.713 146.615 256.838C146.551 242.776 146.583 228.678 146.583 214.615C146.583 213.645 146.39 212.675 147.801 212.571C148.571 212.502 148.539 211.532 148.475 210.84C148.314 209.385 149.244 209.523 150.014 209.662C150.784 209.766 152.13 208.935 152.034 210.84C151.97 211.879 152.195 212.675 153.381 212.71C154.151 212.745 153.958 213.403 153.958 213.888C153.99 215.55 153.958 217.248 153.958 218.91C153.958 231.484 153.99 244.057 153.926 256.631C153.926 259.54 153.99 262.277 156.716 264.424C152.291 264.459 148.314 264.459 143.825 264.459Z" fill="#FEFEFE"/>
<path d="M135.904 203.15C135.904 201.764 135.968 200.379 135.872 198.993C135.808 197.989 136.192 197.712 137.058 197.746C139.624 197.781 142.157 197.781 144.723 197.746C145.364 197.746 145.877 197.781 145.845 198.716C145.781 201.661 145.749 204.57 145.749 207.514C145.749 208.484 145.46 208.934 144.466 208.9C142.029 208.831 139.56 208.831 137.122 208.9C136.225 208.934 135.904 208.623 135.936 207.653C136 206.163 135.968 204.674 135.968 203.185C135.936 203.15 135.936 203.15 135.904 203.15Z" fill="#FEFEFE"/>
<path d="M135.968 215.065C135.968 213.784 136.032 212.537 135.936 211.255C135.839 210.008 136.192 209.523 137.411 209.593C139.688 209.697 141.997 209.662 144.274 209.593C145.204 209.558 145.653 209.731 145.749 210.978C145.941 213.784 145.749 216.624 145.877 219.43C145.909 220.365 145.588 220.607 144.755 220.607C142.189 220.573 139.656 220.538 137.09 220.607C136.032 220.642 135.839 220.157 135.872 219.187C135.936 217.802 135.872 216.416 135.872 215.031C135.936 215.065 135.936 215.065 135.968 215.065Z" fill="#FEFEFE"/>
<path d="M146.582 210.874C146.679 210.459 146.326 209.766 147.095 209.696C147.801 209.627 147.833 210.216 147.801 210.77C147.769 211.255 147.961 211.913 147.224 211.983C146.454 212.052 146.614 211.394 146.582 210.874Z" fill="#F7F9FB"/>
<path d="M153.958 210.874C153.894 211.29 154.118 211.913 153.445 211.913C152.643 211.948 152.74 211.255 152.74 210.701C152.708 210.147 152.772 209.593 153.445 209.662C154.214 209.766 153.862 210.459 153.958 210.874Z" fill="#FDFDFE"/>
<path d="M153.958 207.93C153.926 208.381 154.054 208.9 153.381 208.9C152.804 208.9 152.708 208.519 152.708 208C152.708 207.515 152.772 207.064 153.317 206.995C153.958 206.926 153.958 207.445 153.958 207.93Z" fill="#F0F3F7"/>
<path d="M133.98 210.736C134.012 210.285 133.884 209.697 134.493 209.697C135.231 209.662 135.102 210.355 135.07 210.805C135.07 211.255 135.263 211.983 134.493 211.913C133.819 211.879 134.044 211.186 133.98 210.736Z" fill="#F6F8FA"/>
<path d="M147.128 206.995C147.737 207.064 147.833 207.48 147.801 207.964C147.801 208.449 147.769 208.865 147.16 208.865C146.518 208.865 146.55 208.38 146.55 207.93C146.582 207.48 146.55 207.029 147.128 206.995Z" fill="#EFF3F7"/>
<path d="M134.557 207.064C135.07 207.133 135.07 207.549 135.07 207.965C135.07 208.449 135.07 208.934 134.429 208.865C133.883 208.796 133.98 208.311 133.98 207.93C133.98 207.514 134.044 207.099 134.557 207.064Z" fill="#FEFEFE"/>
<path d="M423.585 271.594C422.976 271.04 422.335 270.485 421.725 269.931C421.565 267.888 421.95 265.879 422.014 263.835C444.558 263.835 467.101 263.835 489.645 263.87C492.275 263.87 491.89 263.489 491.89 266.364C491.89 268.026 492.563 270.208 491.633 271.213C490.639 272.321 488.587 271.559 487.016 271.559C465.883 271.594 444.75 271.594 423.585 271.594Z" fill="#FEFEFE"/>
<path d="M411.464 285.726C410.822 286.696 410.437 286.315 410.149 285.449C410.277 282.332 410.405 279.249 410.534 276.132C410.566 275.612 410.534 275.092 410.598 274.573C410.63 274.123 410.63 273.568 411.207 273.534C411.945 273.534 411.816 274.192 411.816 274.677C411.72 277.794 411.592 280.877 411.496 283.994C411.432 284.583 411.464 285.137 411.464 285.726Z" fill="#050303"/>
<path d="M405.627 274.642C404.473 273.984 405.21 272.772 404.954 271.836C405.082 268.927 405.178 265.983 405.307 263.073C405.339 262.553 405.146 261.757 405.948 261.791C406.717 261.826 406.557 262.588 406.557 263.142C406.461 266.467 406.333 269.793 406.204 273.118C406.204 273.707 406.076 274.261 405.627 274.642Z" fill="#060404"/>
<path d="M415.472 284.133C415.151 284.583 415.344 285.137 415.28 285.622C415.248 285.969 415.248 286.35 414.831 286.384C414.414 286.419 414.318 286.038 414.221 285.726C414.35 282.228 414.446 278.729 414.606 275.196C414.638 274.642 414.35 273.707 415.216 273.707C416.081 273.707 415.857 274.573 415.825 275.162C415.729 278.175 415.6 281.154 415.472 284.133Z" fill="#070404"/>
<path d="M468.769 414.509C468.769 410.872 468.801 407.235 468.737 403.633C468.705 402.49 468.961 402.005 470.148 402.039C472.489 402.143 474.83 402.109 477.203 402.039C478.293 402.005 478.55 402.455 478.518 403.529C478.486 410.907 478.486 418.285 478.518 425.662C478.518 426.667 478.293 427.082 477.267 427.082C474.83 427.013 472.361 427.013 469.891 427.082C468.961 427.117 468.737 426.701 468.737 425.766C468.801 421.991 468.769 418.25 468.769 414.509Z" fill="#FEFEFE"/>
<path d="M194.139 153.48C194.363 153.687 194.46 153.791 194.588 153.93C195.678 155.107 197.121 156.112 197.763 157.532C198.404 158.987 196.929 160.407 196.576 161.896C194.331 171.179 199.494 180.462 208.185 182.748C216.49 184.931 225.085 179.111 226.977 170.036C228.869 160.857 223.449 151.748 214.919 149.808C211.584 149.046 208.313 149.392 205.267 151.02C204.272 151.54 203.631 151.471 202.99 150.535C202.669 150.085 202.252 149.704 201.867 149.288C199.815 147.072 199.783 146.968 202.38 145.721C210.526 141.772 218.318 142.534 225.181 148.665C232.3 155.004 234.641 163.455 232.011 172.946C229.446 182.229 223.321 187.84 214.406 189.052C205.651 190.265 198.5 186.662 193.754 178.557C189.104 170.591 189.297 162.312 193.658 154.172C193.818 153.93 193.946 153.757 194.139 153.48Z" fill="black"/>
<path d="M271.23 234.739C266.324 233.146 263.117 229.786 261.802 224.591C260.423 219.083 261.674 214.165 265.49 210.181C269.499 205.99 275.528 205.02 280.498 207.618C285.629 210.285 288.611 215.931 288.066 221.993C287.521 228.089 283.705 233.042 278.253 234.705C276.393 235.259 276.457 235.259 276.554 233.181C276.618 231.968 276.746 231.172 278.061 230.687C282.615 228.989 285.084 224.313 284.442 219.083C283.865 214.407 280.209 210.701 275.688 210.181C271.102 209.662 266.837 212.64 265.362 217.351C263.887 222.062 265.554 227.327 269.627 229.752C271.295 230.756 271.776 231.795 271.359 233.631C271.295 233.908 271.295 234.254 271.23 234.739Z" fill="black"/>
<path d="M192.857 212.745C192.953 212.814 193.049 212.849 193.113 212.918C194.524 214.234 195.422 215.342 194.492 217.871C192.857 222.305 195.101 227.57 198.885 229.89C202.99 232.384 207.864 231.657 211.071 228.02C214.117 224.556 214.63 219.187 212.289 215.065C209.916 210.909 205.17 208.9 200.905 210.632C199.302 211.29 198.372 210.978 197.442 209.662C197.186 209.315 196.801 209.108 196.416 208.796C201.932 204.432 209.884 205.748 214.31 211.532C218.831 217.421 218.254 226.045 212.995 231.38C207.992 236.437 199.879 236.506 194.941 231.484C189.874 226.392 188.944 217.836 192.857 212.745Z" fill="black"/>
<path d="M230.665 232.211C231.018 231.865 231.274 231.692 231.466 231.415C232.493 230.029 233.487 229.787 235.186 230.583C240.478 233.043 246.442 229.856 248.174 223.968C249.906 218.114 246.667 211.844 241.151 210.355C235.667 208.9 230.056 212.814 229.061 218.841C228.773 220.504 228.709 222.27 229.382 223.794C230.023 225.215 229.574 226.011 228.58 226.773C228.163 227.12 227.779 227.501 227.362 227.882C223.898 222.998 225.117 214.304 229.831 209.939C235.411 204.744 243.235 205.021 248.366 210.597C253.337 216.001 253.529 224.695 248.879 230.376C244.133 236.022 236.213 236.887 230.665 232.211Z" fill="black"/>
<path d="M200.008 291.199C204.946 291.164 209.051 295.044 209.692 300.343C210.302 305.366 207.159 310.354 202.637 311.67C197.955 312.986 192.921 310.354 191.221 305.574C190.997 304.985 190.291 303.98 191.125 303.669C191.894 303.391 193.081 303.01 193.626 304.569C194.428 306.89 196.063 308.31 198.244 308.968C201.868 310.042 205.684 307.825 206.806 304.015C207.961 300.205 206.229 296.118 202.83 294.559C199.366 293 195.39 294.559 193.787 298.3C193.306 299.408 192.728 299.616 191.734 299.616C190.772 299.616 190.708 299.235 190.932 298.369C192.023 294.282 195.871 291.234 200.008 291.199Z" fill="black"/>
<path d="M200.008 272.98C196.063 272.945 192.44 270.243 191.125 266.294C190.965 265.775 190.227 264.874 191.157 264.632C191.895 264.459 192.985 263.974 193.562 265.429C194.749 268.546 197.025 270.174 200.168 270.174C203.663 270.174 206.582 267.368 207.095 263.558C207.576 260.06 205.459 256.423 202.317 255.28C199.078 254.102 195.454 255.695 193.819 258.951C193.562 259.471 193.626 260.337 192.921 260.441C192.247 260.545 191.381 260.649 190.9 260.302C190.419 259.956 190.997 259.124 191.189 258.57C192.889 253.86 197.795 251.227 202.477 252.474C207.127 253.721 210.269 258.674 209.692 263.835C209.083 269.1 204.914 273.014 200.008 272.98Z" fill="black"/>
<path d="M282.743 293.243C281.781 294.663 280.947 295.252 279.279 294.42C276.49 293.035 272.962 294.455 271.23 297.191C269.338 300.17 269.563 304.153 271.808 306.751C273.956 309.28 277.452 309.938 280.274 308.345C283.16 306.717 284.667 303.253 283.897 299.928C283.641 298.854 283.384 298.023 284.41 297.122C285.404 296.256 285.565 296.741 285.885 297.607C287.521 301.763 286.398 306.682 283.095 309.626C279.825 312.536 275.111 312.813 271.615 310.25C268.024 307.617 266.452 302.803 267.767 298.404C269.082 294.039 272.866 291.13 277.131 291.199C279.279 291.234 280.851 291.822 282.743 293.243Z" fill="black"/>
<path d="M250.9 272.98C245.769 272.98 241.76 268.892 241.279 263.212C240.862 258.155 244.358 253.409 249.296 252.335C253.946 251.331 258.724 254.518 260.103 259.54C260.231 260.06 260.808 260.96 260.039 261.099C259.269 261.237 258.083 261.792 257.634 260.268C256.928 257.878 255.421 256.215 253.24 255.384C249.681 254.033 245.833 255.903 244.358 259.644C242.915 263.35 244.422 267.715 247.789 269.481C251.156 271.248 255.165 269.897 257.089 266.329C257.345 265.844 257.345 264.978 258.179 265.082C258.788 265.151 259.622 264.909 259.975 265.463C260.295 265.948 259.782 266.641 259.526 267.195C257.954 270.763 254.619 272.98 250.9 272.98Z" fill="black"/>
<path d="M217.517 256.457C218.896 257.427 219.12 258.501 218.447 260.302C217.228 263.593 218.671 267.299 221.461 269.135C224.155 270.901 227.779 270.486 230.055 268.096C232.268 265.81 232.845 261.93 231.434 259.021C229.895 255.903 226.592 254.137 223.449 255.245C221.718 255.869 221.205 254.726 220.403 253.721C223.642 250.95 229.414 251.954 232.429 255.799C235.828 260.129 235.443 266.398 231.563 270.278C227.907 273.915 222.038 273.845 218.511 270.105C214.887 266.294 214.438 260.129 217.517 256.457Z" fill="black"/>
<path d="M282.775 254.344C281.813 255.834 280.787 256.111 279.151 255.383C276.169 254.067 272.706 255.626 270.974 258.639C269.338 261.514 269.723 265.394 271.936 267.888C274.181 270.416 277.74 270.97 280.594 269.204C283.384 267.472 284.859 263.939 283.801 260.648C283.224 258.813 284.443 258.397 285.18 257.496C287.746 260.856 286.976 266.849 283.577 270.243C279.857 274.019 273.924 273.915 270.268 270.001C266.677 266.19 266.452 259.921 269.755 255.73C272.994 251.643 278.766 251.019 282.775 254.344Z" fill="black"/>
<path d="M220.371 292.585C225.021 289.918 230.344 291.268 233.134 295.771C235.86 300.136 235.058 306.093 231.338 309.522C227.618 312.952 222.006 312.778 218.511 309.107C214.919 305.331 214.438 299.581 217.389 295.529C219.12 296.914 219.12 296.914 218.447 298.993C217.357 302.318 218.479 305.989 221.205 307.964C223.834 309.869 227.362 309.626 229.799 307.34C232.172 305.158 232.877 301.244 231.499 298.196C230.088 295.113 226.753 293.208 223.61 294.213C221.878 294.732 221.205 293.97 220.371 292.585Z" fill="black"/>
<path d="M250.932 291.199C255.164 291.199 258.82 294.074 260.071 298.438C260.231 298.958 260.937 299.928 259.975 300.101C259.237 300.239 258.05 300.62 257.602 299.131C256.64 296.152 254.683 294.386 251.765 293.97C248.302 293.485 244.967 295.91 244.069 299.512C243.139 303.288 244.903 307.132 248.206 308.587C251.509 310.077 255.293 308.691 257.088 305.331C257.377 304.777 257.409 304.05 258.339 304.015C260.263 303.946 260.456 304.188 259.654 306.024C257.634 310.596 252.695 312.986 248.238 311.497C243.556 309.938 240.766 305.123 241.504 299.824C242.145 294.871 246.186 291.164 250.932 291.199Z" fill="black"/>
<path d="M395.558 123.345C383.18 123.345 370.769 123.31 358.391 123.379C356.948 123.379 356.627 122.929 356.627 121.44C356.691 106.511 356.691 91.5473 356.627 76.6185C356.627 75.233 356.916 74.748 358.295 74.748C383.18 74.7827 408.096 74.7827 432.981 74.748C434.36 74.748 434.649 75.1983 434.649 76.5838C434.617 91.5127 434.585 106.476 434.649 121.405C434.649 123.068 434.136 123.345 432.757 123.345C420.314 123.345 407.936 123.345 395.558 123.345Z" fill="#5983AF"/>
<path d="M395.558 68.6862C383.276 68.6862 370.962 68.6862 358.68 68.6862C356.627 68.6862 356.627 68.6862 356.627 66.4001C356.627 65.2917 356.691 64.1833 356.595 63.1095C356.499 61.8279 356.98 61.5854 358.07 61.5854C383.083 61.6201 408.096 61.6201 433.109 61.5854C434.36 61.5854 434.681 62.0011 434.617 63.2481C434.52 64.5643 434.52 65.9152 434.617 67.2314C434.681 68.4091 434.264 68.7208 433.238 68.6862C429.935 68.6169 426.6 68.6515 423.297 68.6515C414.029 68.6862 404.793 68.6862 395.558 68.6862Z" fill="#5882AE"/>
<path d="M420.411 291.303C421.79 289.675 423.168 288.012 424.547 286.384C425.285 285.969 426.055 285.934 426.888 285.934C442.313 285.934 457.77 285.934 473.195 285.934C475.728 285.934 475.856 286.073 475.856 288.74C475.856 303.045 475.856 317.35 475.856 331.656C475.856 334.219 475.856 334.219 473.451 334.219C471.751 334.219 470.02 334.219 468.32 334.219C466.364 334.219 466.14 334.011 466.14 331.829C466.107 324.036 466.043 316.242 466.172 308.449C466.236 304.327 464.761 301.313 461.297 299.547C460.111 298.923 459.662 298.023 459.726 296.637C459.758 295.425 459.726 294.212 459.726 293C459.726 292.134 459.373 291.788 458.539 291.788C454.178 291.822 454.82 291.407 454.916 295.39C454.98 297.676 454.338 299.096 452.446 300.274C449.945 301.833 448.727 304.431 448.727 307.617C448.759 315.341 448.727 323.066 448.727 330.824C448.727 331.344 448.727 331.864 448.727 332.383C448.727 333.665 448.246 334.288 446.995 334.254C445.231 334.184 443.467 334.254 441.704 334.219C440.132 334.184 439.876 333.942 439.844 332.141C439.812 328.435 439.844 324.763 439.812 321.057C439.812 319.325 439.78 317.593 439.844 315.861C439.908 314.476 439.491 313.852 438.112 313.887C435.322 313.956 432.564 313.956 429.774 313.887C428.556 313.852 428.203 314.406 428.203 315.653C428.235 321.022 428.235 326.391 428.203 331.76C428.203 332.556 428.492 333.561 427.433 333.907C426.664 333.942 426.247 333.734 426.087 332.695C425.093 324.901 424.002 317.108 422.944 309.315C422.11 303.357 421.276 297.33 420.411 291.303Z" fill="#FEFEFE"/>
<path d="M427.434 333.942C427.915 333.388 427.69 332.73 427.69 332.141C427.722 326.495 427.754 320.849 427.658 315.168C427.626 313.748 428.075 313.436 429.293 313.436C432.436 313.54 435.611 313.54 438.754 313.436C440.004 313.402 440.389 313.783 440.389 315.168C440.325 320.884 440.389 326.599 440.325 332.314C440.325 333.596 440.613 334.046 441.832 333.977C443.468 333.873 445.135 333.873 446.803 333.977C447.989 334.046 448.374 333.7 448.342 332.383C448.246 327.534 448.246 322.685 448.246 317.835C448.246 314.545 448.374 311.254 448.278 307.964C448.149 303.773 450.074 300.967 453.312 299.096C454.178 298.612 454.467 298.127 454.435 297.122C454.371 295.737 454.467 294.351 454.403 292.966C454.339 291.788 454.659 291.338 455.814 291.338C460.207 291.268 460.303 291.234 460.175 295.944C460.143 297.711 460.56 298.612 462.067 299.512C464.953 301.209 466.556 303.911 466.524 307.687C466.46 315.861 466.524 324.07 466.46 332.279C466.46 333.63 466.749 334.081 468.032 334.011C469.956 333.907 471.88 333.907 473.804 334.011C475.054 334.081 475.439 333.665 475.439 332.279C475.375 325.283 475.407 318.32 475.407 311.324C475.407 303.634 475.375 295.979 475.439 288.289C475.439 286.8 475.119 286.35 473.676 286.35C457.289 286.419 440.87 286.384 424.483 286.384C424.772 286.073 425.093 285.726 425.381 285.415C426.087 285.449 426.76 285.518 427.466 285.518C443.019 285.518 458.539 285.553 474.092 285.484C475.664 285.484 476.177 285.83 476.145 287.666C476.081 302.664 476.113 317.662 476.081 332.66C476.081 333.319 476.305 334.046 475.824 334.635C469.795 334.6 463.766 334.6 457.738 334.565C447.797 334.565 437.888 334.565 427.947 334.565C427.434 334.565 426.92 334.565 426.055 334.565C426.824 334.254 427.113 334.115 427.434 333.942Z" fill="#5A83AF"/>
<path d="M429.069 353.339C428.46 352.646 428.941 351.676 428.46 350.949C428.813 350.498 429.293 350.533 429.774 350.533C432.853 350.533 435.931 350.533 439.01 350.533C440.036 350.533 440.613 350.845 440.613 352.092C440.613 353.304 440.1 353.685 439.042 353.685C436.124 353.65 433.206 353.685 430.288 353.685C429.839 353.616 429.422 353.616 429.069 353.339Z" fill="#FEFEFE"/>
<path d="M429.069 353.339C432.372 353.339 435.643 353.305 438.946 353.339C439.78 353.339 440.325 353.339 440.325 352.127C440.325 350.949 439.844 350.845 438.978 350.88C435.483 350.949 431.955 350.949 428.46 350.984C428.46 350.672 428.46 350.395 428.46 350.083C432.148 350.083 435.835 350.187 439.523 350.083C441.159 350.014 440.998 350.984 440.998 352.127C440.998 353.27 441.127 354.205 439.491 354.171C436.028 354.032 432.532 354.136 429.069 354.171C429.069 353.859 429.069 353.582 429.069 353.339Z" fill="#5E86B1"/>
<path d="M401.298 200.275C398.123 200.275 397.578 199.652 397.578 196.084C397.578 192.62 398.251 191.928 401.522 191.928C404.537 191.928 405.306 192.863 405.306 196.396C405.339 199.583 404.601 200.275 401.298 200.275Z" fill="#6DB5DE"/>
<path d="M353.549 177.726C353.805 178.835 353.196 179.112 352.747 179.562C351.24 181.017 349.701 182.437 348.162 183.892C347.969 184.065 347.745 184.342 347.488 184.1C347.2 183.857 347.392 183.58 347.584 183.372C349.572 181.502 351.561 179.631 353.549 177.726Z" fill="#648BB4"/>
<path d="M374.553 139.936C375.131 139.798 375.708 139.729 376.06 140.421C376.253 140.872 376.189 141.287 375.868 141.668C375.323 142.257 374.842 141.911 374.329 141.599C374.105 141.01 374.169 140.456 374.553 139.936Z" fill="#0F0A09"/>
<path d="M386.868 141.045C386.803 141.668 386.515 142.084 385.874 142.118C385.296 142.118 384.944 141.772 384.879 141.218C384.815 140.56 385.2 140.075 385.777 140.006C386.419 139.936 386.771 140.352 386.868 141.045Z" fill="#0F0909"/>
<path d="M395.654 122.617C383.468 122.617 371.315 122.583 359.129 122.652C357.814 122.652 357.397 122.34 357.429 120.851C357.493 106.303 357.461 91.79 357.429 77.2421C357.429 75.8913 357.75 75.5103 359.033 75.5103C383.5 75.5449 407.968 75.5449 432.404 75.5103C433.559 75.5103 433.943 75.7874 433.943 77.1036C433.911 91.686 433.879 106.303 433.943 120.886C433.943 122.41 433.462 122.652 432.212 122.617C419.994 122.583 407.84 122.617 395.654 122.617Z" fill="#FEFEFE"/>
<path d="M395.526 67.9246C383.404 67.9246 371.283 67.8899 359.161 67.9592C357.718 67.9592 357.365 67.5435 357.397 66.0541C357.493 62.3825 357.429 62.3825 360.86 62.3825C384.591 62.3825 408.289 62.4172 432.019 62.3479C433.591 62.3479 433.976 62.7982 433.911 64.4608C433.783 67.9592 433.879 67.9592 430.608 67.9592C418.936 67.9246 407.231 67.9246 395.526 67.9246Z" fill="#FEFEFE"/>
<path d="M457.577 311.254C459.918 311.254 462.291 311.289 464.632 311.254C465.53 311.22 465.851 311.531 465.851 312.536C465.819 316.623 465.819 320.745 465.851 324.832C465.851 325.767 465.498 326.01 464.696 326.01C459.822 325.975 454.98 325.975 450.105 326.01C449.304 326.01 448.951 325.767 448.983 324.832C449.015 320.745 449.015 316.623 448.983 312.536C448.983 311.531 449.304 311.254 450.202 311.254C452.671 311.289 455.14 311.254 457.577 311.254Z" fill="#FEFEFE"/>
<path d="M457.449 310.388C455.333 310.388 453.184 310.388 451.068 310.388C449.047 310.388 449.175 310.388 449.015 308.137C448.662 304.05 451.613 300.032 455.621 299.027C459.341 298.092 463.285 300.17 465.145 303.946C466.043 305.781 465.851 307.756 465.851 309.696C465.851 310.596 465.145 310.388 464.664 310.388C462.227 310.388 459.854 310.388 457.449 310.388Z" fill="#FEFEFE"/>
<path d="M433.879 333.942C432.436 333.942 430.993 333.873 429.55 333.976C428.62 334.011 428.363 333.63 428.395 332.695C428.427 329.577 428.427 326.46 428.395 323.343C428.395 322.477 428.62 322.13 429.486 322.13C432.532 322.165 435.579 322.165 438.625 322.13C439.491 322.13 439.715 322.442 439.715 323.343C439.683 326.46 439.683 329.577 439.715 332.695C439.715 333.665 439.491 334.046 438.561 333.976C436.958 333.873 435.418 333.942 433.879 333.942Z" fill="#FEFEFE"/>
<path d="M457.385 333.942C454.98 333.942 452.574 333.907 450.169 333.976C449.239 334.011 448.951 333.664 448.983 332.695C449.047 331.205 449.047 329.681 448.983 328.192C448.919 327.083 449.4 326.841 450.33 326.841C455.076 326.875 459.854 326.875 464.6 326.841C465.594 326.841 465.915 327.222 465.883 328.261C465.819 329.646 465.819 331.032 465.883 332.417C465.947 333.595 465.626 334.045 464.472 334.011C462.099 333.872 459.758 333.942 457.385 333.942Z" fill="#FEFEFE"/>
<path d="M434.039 314.233C435.547 314.233 437.022 314.268 438.529 314.198C439.459 314.164 439.748 314.545 439.683 315.515C439.619 317.073 439.619 318.632 439.683 320.191C439.716 321.056 439.459 321.403 438.593 321.403C435.547 321.368 432.532 321.368 429.486 321.403C428.62 321.403 428.363 321.091 428.395 320.191C428.459 318.285 427.85 315.896 428.684 314.649C429.518 313.402 431.859 314.406 433.558 314.233C433.719 314.233 433.879 314.233 434.039 314.233Z" fill="#FDFEFE"/>
<path d="M459.534 295.39C459.373 296.152 459.983 297.503 459.213 297.815C458.187 298.23 456.936 297.988 455.75 297.953C455.269 297.953 455.236 297.468 455.236 297.053C455.236 296.291 455.204 295.563 455.236 294.801C455.269 291.892 454.884 292.238 457.609 292.238C459.918 292.273 459.502 291.857 459.534 295.39Z" fill="#FAFBFC"/>
</svg>
